<?xml version="1.0" encoding="utf-8"?>
<svg viewBox="-638.667 -495.036 1291.298 988.077" xmlns="http://www.w3.org/2000/svg" xmlns:bx="https://boxy-svg.com">
  <defs>
    <bx:export>
      <bx:file format="png" href="#object-0" path="Bez nazwy.png"/>
      <bx:file format="webp" href="#object-0" path="Bez nazwy.webp"/>
      <bx:file format="jpeg" href="#object-0" path="Bez nazwy.jpeg"/>
      <bx:file format="gif" href="#object-0" path="Bez nazwy.gif"/>
      <bx:file format="jpeg" href="#object-1" path="Bez nazwy 2.jpeg"/>
      <bx:file format="jpeg" href="#object-2" path="Bez nazwy 3.jpeg"/>
      <bx:file format="jpeg" href="#object-3" path="Bez nazwy 4.jpeg"/>
      <bx:file format="jpeg" href="#object-4" path="Bez nazwy 5.jpeg"/>
      <bx:file format="jpeg" href="#object-0" path="Bez nazwy 6.jpeg"/>
      <bx:file format="jpeg" href="#object-5" path="Bez nazwy 7.jpeg"/>
      <bx:file format="jpeg" href="#object-6" path="Bez nazwy 8.jpeg"/>
      <bx:file format="jpeg" href="#object-7" path="Bez nazwy 9.jpeg" excluded="true"/>
      <bx:file format="jpeg" path="Bez nazwy 10.jpeg"/>
      <bx:file format="gif" path="Bez nazwy 2.gif"/>
    </bx:export>
  </defs>
  <g id="object-7" style="" transform="matrix(6.66997, 0, 0, 6.66997, 0.377213, -6.518569)">
    <a transform="matrix(0.237511, 0.238463, -0.233499, 0.232566, -0.320804, -22.429628)" style="" id="object-1">
      <rect x="-100" y="-100" width="200" height="200" fill="none" stroke="blue" stroke-width="2" transform="matrix(0, -1, 1, 0, 0, 0)"/>
      <polygon points="0 100 -100 0 0 -100 100 0" fill="none" stroke="black" stroke-width="2" transform="matrix(0, -1, 1, 0, 0, 0)"/>
      <rect x="-50" y="-50" width="100" height="100" fill="none" stroke="red" stroke-width="2" transform="matrix(0, -1, 1, 0, 0, 0)"/>
    </a>
    <a transform="matrix(0.237511, 0.238463, -0.233499, 0.232566, 46.831364, -21.929274)" style="" id="object-2">
      <rect x="-100" y="-100" width="200" height="200" fill="none" stroke="blue" stroke-width="2" transform="matrix(0, -1, 1, 0, 0, 0)"/>
      <polygon points="0 100 -100 0 0 -100 100 0" fill="none" stroke="black" stroke-width="2" transform="matrix(0, -1, 1, 0, 0, 0)"/>
      <rect x="-50" y="-50" width="100" height="100" fill="none" stroke="red" stroke-width="2" transform="matrix(0, -1, 1, 0, 0, 0)"/>
    </a>
    <a transform="matrix(0.237511, 0.238463, -0.233499, 0.232566, -47.40073, -23.007248)" style="" id="object-3">
      <rect x="-100" y="-100" width="200" height="200" fill="none" stroke="blue" stroke-width="2" transform="matrix(0, -1, 1, 0, 0, 0)"/>
      <polygon points="0 100 -100 0 0 -100 100 0" fill="none" stroke="black" stroke-width="2" transform="matrix(0, -1, 1, 0, 0, 0)"/>
      <rect x="-50" y="-50" width="100" height="100" fill="none" stroke="red" stroke-width="2" transform="matrix(0, -1, 1, 0, 0, 0)"/>
    </a>
    <a transform="matrix(0.237511, 0.238463, -0.233499, 0.232566, 0.114851, 24.695364)" style="" id="object-4">
      <rect x="-100" y="-100" width="200" height="200" fill="none" stroke="blue" stroke-width="2" transform="matrix(0, -1, 1, 0, 0, 0)"/>
      <polygon points="0 100 -100 0 0 -100 100 0" fill="none" stroke="black" stroke-width="2" transform="matrix(0, -1, 1, 0, 0, 0)"/>
      <rect x="-50" y="-50" width="100" height="100" fill="none" stroke="red" stroke-width="2" transform="matrix(0, -1, 1, 0, 0, 0)"/>
    </a>
    <a transform="matrix(0.237511, 0.238463, -0.233499, 0.232566, 47.267666, 25.306583)" style="" id="object-0">
      <rect x="-100" y="-100" width="200" height="200" fill="none" stroke="blue" stroke-width="2" transform="matrix(0, -1, 1, 0, 0, 0)"/>
      <polygon points="0 100 -100 0 0 -100 100 0" fill="none" stroke="black" stroke-width="2" transform="matrix(0, -1, 1, 0, 0, 0)"/>
      <rect x="-50" y="-50" width="100" height="100" fill="none" stroke="red" stroke-width="2" transform="matrix(0, -1, 1, 0, 0, 0)"/>
    </a>
    <a transform="matrix(0.237511, 0.238463, -0.233499, 0.232566, -46.855202, 23.952051)" style="" id="object-5">
      <rect x="-100" y="-100" width="200" height="200" fill="none" stroke="blue" stroke-width="2" transform="matrix(0, -1, 1, 0, 0, 0)"/>
      <polygon points="0 100 -100 0 0 -100 100 0" fill="none" stroke="black" stroke-width="2" transform="matrix(0, -1, 1, 0, 0, 0)"/>
      <rect x="-50" y="-50" width="100" height="100" fill="none" stroke="red" stroke-width="2" transform="matrix(0, -1, 1, 0, 0, 0)"/>
    </a>
    <a transform="matrix(0.237511, 0.238463, -0.233499, 0.232566, 46.831322, -21.929274)" style="" id="object-6">
      <rect x="-100" y="-100" width="200" height="200" fill="none" stroke="blue" stroke-width="2" transform="matrix(0, -1, 1, 0, 0, 0)"/>
      <polygon points="0 100 -100 0 0 -100 100 0" fill="none" stroke="black" stroke-width="2" transform="matrix(0, -1, 1, 0, 0, 0)"/>
      <rect x="-50" y="-50" width="100" height="100" fill="none" stroke="red" stroke-width="2" transform="matrix(0, -1, 1, 0, 0, 0)"/>
    </a>
  </g>
</svg>